<svg width="35" height="35" viewBox="0 0 35 35" fill="none" xmlns="http://www.w3.org/2000/svg">
<path d="M27.4124 8.45001L23.1999 25.3625C22.8999 26.625 21.7749 27.5 20.4749 27.5H4.04992C2.16242 27.5 0.812438 25.6499 1.37494 23.8374L6.63743 6.93756C6.99993 5.76256 8.08745 4.94995 9.31245 4.94995H24.6874C25.8749 4.94995 26.8624 5.67496 27.2749 6.67496C27.5124 7.21246 27.5624 7.82501 27.4124 8.45001Z" stroke="#ffffff" stroke-width="2" stroke-miterlimit="10"/>
<path d="M20 27.5H25.975C27.5875 27.5 28.85 26.1375 28.7375 24.525L27.5 7.5" stroke="#ffffff" stroke-width="2" stroke-miterlimit="10" stroke-linecap="round" stroke-linejoin="round"/>
<path d="M12.1001 7.97501L13.4001 2.57507" stroke="#ffffff" stroke-width="2" stroke-miterlimit="10" stroke-linecap="round" stroke-linejoin="round"/>
<path d="M20.4751 7.98752L21.6501 2.56256" stroke="#ffffff" stroke-width="2" stroke-miterlimit="10" stroke-linecap="round" stroke-linejoin="round"/>
<path d="M9.625 15H19.625" stroke="#ffffff" stroke-width="2" stroke-miterlimit="10" stroke-linecap="round" stroke-linejoin="round"/>
<path d="M8.375 20H18.375" stroke="#ffffff" stroke-width="2" stroke-miterlimit="10" stroke-linecap="round" stroke-linejoin="round"/>
</svg>
