<svg width="35" height="35" viewBox="0 0 35 35" fill="none" xmlns="http://www.w3.org/2000/svg">
<path d="M14.6562 3.68958L5.87705 9.42083C3.06247 11.2583 3.06247 15.3708 5.87705 17.2083L14.6562 22.9396C16.2312 23.975 18.8271 23.975 20.4021 22.9396L29.1375 17.2083C31.9375 15.3708 31.9375 11.2729 29.1375 9.43542L20.4021 3.70417C18.8271 2.65417 16.2312 2.65417 14.6562 3.68958Z" stroke="#ffffff" stroke-width="2" stroke-linecap="round" stroke-linejoin="round"/>
<path d="M8.21038 19.075L8.1958 25.9146C8.1958 27.7667 9.62497 29.75 11.375 30.3333L16.0271 31.8792C16.8291 32.1417 18.1562 32.1417 18.9729 31.8792L23.625 30.3333C25.375 29.75 26.8041 27.7667 26.8041 25.9146V19.1479" stroke="#ffffff" stroke-width="2" stroke-linecap="round" stroke-linejoin="round"/>
<path d="M31.2083 21.875V13.125" stroke="#ffffff" stroke-width="2" stroke-linecap="round" stroke-linejoin="round"/>
</svg>
