<svg width="35" height="35" viewBox="0 0 35 35" fill="none" xmlns="http://www.w3.org/2000/svg">
<path d="M5.86234 8.70624C4.01025 11.1562 2.9165 14.2042 2.9165 17.5C2.9165 25.55 9.44984 32.0833 17.4998 32.0833C25.5498 32.0833 32.0832 25.55 32.0832 17.5C32.0832 9.44999 25.5498 2.91666 17.4998 2.91666" stroke="#292D32" stroke-width="2" stroke-linecap="round" stroke-linejoin="round"/>
<path d="M7.2915 17.5C7.2915 23.1437 11.8561 27.7083 17.4998 27.7083C23.1436 27.7083 27.7082 23.1437 27.7082 17.5C27.7082 11.8562 23.1436 7.29166 17.4998 7.29166" stroke="#292D32" stroke-width="2" stroke-linecap="round" stroke-linejoin="round"/>
<path d="M17.5 23.3333C20.7229 23.3333 23.3333 20.7229 23.3333 17.5C23.3333 14.2771 20.7229 11.6667 17.5 11.6667" stroke="#292D32" stroke-width="2" stroke-linecap="round" stroke-linejoin="round"/>
</svg>
