<?xml version="1.0" encoding="utf-8"?>
<!-- Generator: Adobe Illustrator 26.1.0, SVG Export Plug-In . SVG Version: 6.00 Build 0)  -->
<svg version="1.1" id="Layer_1" xmlns="http://www.w3.org/2000/svg" xmlns:xlink="http://www.w3.org/1999/xlink" x="0px" y="0px"
	 viewBox="0 0 1350 1080" style="enable-background:new 0 0 1350 1080;" xml:space="preserve">
<style type="text/css">
	.st0{fill:#6A45FF;}
	.st1{fill:#4B1FFF;}
	.st2{fill:#9D85FF;}
	.st3{fill:#52B9EB;}
	.st4{fill:#2FADEB;}
	.st5{fill:#8DCCEB;}
	.st6{fill:#85E1CB;}
	.st7{fill:#29CCB4;}
	.st8{fill:#BDE1DD;}
	.st9{fill:#FFFFFF;}
</style>
<path class="st0" d="M166.7,652.2L166.7,652.2c-57,0-103.3-46.2-103.3-103.3v0c0-57,46.2-103.3,103.3-103.3h0
	c57,0,103.3,46.2,103.3,103.3v0C270,605.9,223.8,652.2,166.7,652.2z"/>
<path class="st1" d="M166.7,395.5L166.7,395.5c-57,0-103.3-46.2-103.3-103.3v0c0-57,46.2-103.3,103.3-103.3h0
	c57,0,103.3,46.2,103.3,103.3v0C270,349.2,223.8,395.5,166.7,395.5z"/>
<path class="st2" d="M166.7,892.6L166.7,892.6c-57,0-103.3-46.2-103.3-103.3v0c0-57,46.2-103.3,103.3-103.3h0
	c57,0,103.3,46.2,103.3,103.3v0C270,846.4,223.8,892.6,166.7,892.6z"/>
<path class="st3" d="M417.6,652.2L417.6,652.2c-57,0-103.3-46.2-103.3-103.3v0c0-57,46.2-103.3,103.3-103.3h0
	c57,0,103.3,46.2,103.3,103.3v0C520.8,605.9,474.6,652.2,417.6,652.2z"/>
<path class="st4" d="M417.6,395.5L417.6,395.5c-57,0-103.3-46.2-103.3-103.3v0c0-57,46.2-103.3,103.3-103.3h0
	c57,0,103.3,46.2,103.3,103.3v0C520.8,349.2,474.6,395.5,417.6,395.5z"/>
<path class="st5" d="M417.6,892.6L417.6,892.6c-57,0-103.3-46.2-103.3-103.3v0c0-57,46.2-103.3,103.3-103.3h0
	c57,0,103.3,46.2,103.3,103.3v0C520.8,846.4,474.6,892.6,417.6,892.6z"/>
<path class="st6" d="M668.4,652.2L668.4,652.2c-57,0-103.3-46.2-103.3-103.3v0c0-57,46.2-103.3,103.3-103.3h0
	c57,0,103.3,46.2,103.3,103.3v0C771.6,605.9,725.4,652.2,668.4,652.2z"/>
<path class="st7" d="M668.4,395.5L668.4,395.5c-57,0-103.3-46.2-103.3-103.3v0c0-57,46.2-103.3,103.3-103.3h0
	c57,0,103.3,46.2,103.3,103.3v0C771.6,349.2,725.4,395.5,668.4,395.5z"/>
<path class="st8" d="M668.4,892.6L668.4,892.6c-57,0-103.3-46.2-103.3-103.3v0c0-57,46.2-103.3,103.3-103.3h0
	c57,0,103.3,46.2,103.3,103.3v0C771.6,846.4,725.4,892.6,668.4,892.6z"/>
<path class="st9" d="M916.2,652.2L916.2,652.2c-57,0-103.3-46.2-103.3-103.3v0c0-57,46.2-103.3,103.3-103.3h0
	c57,0,103.3,46.2,103.3,103.3v0C1019.5,605.9,973.3,652.2,916.2,652.2z"/>
<path d="M1183.3,652.2L1183.3,652.2c-57,0-103.3-46.2-103.3-103.3v0c0-57,46.2-103.3,103.3-103.3h0c57,0,103.3,46.2,103.3,103.3v0
	C1286.5,605.9,1240.3,652.2,1183.3,652.2z"/>
<text transform="matrix(1 0 0 1 -170.6202 564.4049)" class="st9" style="font-family:'ArialMT'; font-size:58.1695px;">Main</text>
<text transform="matrix(1 0 0 1 -211.0475 307.6966)" class="st9" style="font-family:'ArialMT'; font-size:58.1695px;">Darker</text>
<text transform="matrix(1 0 0 1 -222.274 804.8845)" class="st9" style="font-family:'ArialMT'; font-size:58.1695px;">Lighter</text>
</svg>
